<svg height="81.551" viewBox="0 0 127.51 81.551" width="127.51" xmlns="http://www.w3.org/2000/svg" xmlns:xlink="http://www.w3.org/1999/xlink"><clipPath id="a"><path d="m0 0h127.51v81.551h-127.51z"/></clipPath><g clip-path="url(#a)" fill="#fff"><path d="m-252.95 413.038a32.873 32.873 0 0 1 -3.812-4l-.014-.018.813-.652.032.039a31.716 31.716 0 0 0 3.648 3.824l.024.021z" transform="translate(306.158 -389.152)"/><path d="m-253.954 409.195-.295-1 .017-.006c2.044-.6 4.267-1.315 6.606-2.121a.426.426 0 0 0 .044-.015h.007l.025-.008.339.986c-2.389.821-4.662 1.551-6.743 2.164z" transform="translate(307.144 -390.061)"/><path d="m-241.414 419.188-.288-1c.316-.092.634-.185.955-.288a36.23 36.23 0 0 0 14.383-8.2l.728.747-.065.063-.022.022-.026.025-.013.011-.008.008-.014.014-.006.006-.019.018-.025.024-.015.015-.018.017-.014.014a37.483 37.483 0 0 1 -14.536 8.2c-.325.106-.648.2-.969.293z" transform="translate(312.04 -388.635)"/><path d="m-255.46 410.888-.211-.261a28.3 28.3 0 0 1 -3.481-5.368l-.456-.994 1.059.272c3.3.849 9.763.986 18.2.384l3.6-.256-3.381 1.265c-1.6.6-3.281 1.2-4.988 1.791-2.388.824-4.659 1.553-6.744 2.167-1.112.328-2.209.639-3.27.916zm-2.241-5.1a30.936 30.936 0 0 0 2.632 3.92c.948-.253 1.923-.528 2.91-.82 2.071-.612 4.326-1.335 6.7-2.153.534-.183 1.063-.37 1.59-.555-4.851.238-10.226.273-13.831-.391z" transform="translate(305.053 -390.754)"/><path d="m-238.725 422.594c-1 0-2-.049-2.993-.143l-3.065-.293 2.992-.731q.638-.156 1.29-.346c.317-.092.635-.185.958-.288a36.233 36.233 0 0 0 14.382-8.2c3.192-3.12 5.2-6.7 5.523-9.833l.047-.475.478.007c3.17.042 5.258.927 6.382 2.7.872 1.379.7 3.553-.47 5.818-2.666 5.18-10.312 10.981-23.775 11.736q-.871.048-1.749.048zm20.062-19.251c-.485 3.246-2.566 6.859-5.771 9.991a36.787 36.787 0 0 1 -14.085 8.217q.744-.006 1.485-.047c13.023-.73 20.372-6.252 22.906-11.174 1-1.931 1.189-3.719.516-4.782-.869-1.373-2.523-2.097-5.051-2.206z" transform="translate(310.838 -391.529)"/><path d="m-255.562 409.276-1.02-.31c-.378-.114-9.27-2.861-11.717-8.14a6.478 6.478 0 0 1 -.008-5.5 1.306 1.306 0 0 1 1.294-.78c2.925.146 9.214 8.915 11.069 13.732zm-11.538-13.688c-.114 0-.189.035-.264.184a5.454 5.454 0 0 0 .011 4.617c1.772 3.824 7.558 6.307 9.986 7.205-2.323-5.091-7.741-11.907-9.7-12z" transform="translate(301.422 -394.546)"/><path d="m-248.285 408.428 3.371-1.266c4.137-1.554 8.076-3.186 10.279-4.257l.2-.1c5.91-2.867 12.6-6.113 16.058-2.8a5.126 5.126 0 0 1 1.141 4.289l-.049.474-.475-.005a47.251 47.251 0 0 0 -9.645 1.319l-.188.039a163.988 163.988 0 0 1 -17.1 2.049zm26.015-8.783c-3.253 0-7.674 2.144-11.71 4.1l-.2.1c-1.614.784-4.141 1.863-6.994 2.992 5.651-.513 10.778-1.219 13.376-1.741l.189-.036a54.965 54.965 0 0 1 9.369-1.339 3.9 3.9 0 0 0 -.861-2.965 4.4 4.4 0 0 0 -3.169-1.111z" transform="translate(309.472 -392.961)"/><path d="m-240.9 420.945c-13.567 0-21.851-10.242-21.946-10.361l-.664-.838 1.07-.006a37.808 37.808 0 0 0 8.568-1.475l.327-.083.213.263a31.659 31.659 0 0 0 3.7 3.884 26.68 26.68 0 0 0 15.321 6.781l3.06.3-2.99.722a28.177 28.177 0 0 1 -6.659.813zm-20.419-10.21c2.452 2.607 11.126 10.6 23.853 8.942a27.844 27.844 0 0 1 -12.854-6.567 32.888 32.888 0 0 1 -3.613-3.751 44.522 44.522 0 0 1 -7.388 1.377z" transform="translate(303.53 -389.225)"/><path d="m-236.9 422.45a27.71 27.71 0 0 1 -15.908-7.037 32.816 32.816 0 0 1 -3.826-4.013l-.5-.627.779-.2c1.048-.274 2.135-.58 3.236-.905 2.067-.61 4.321-1.333 6.7-2.153 1.7-.585 3.37-1.187 4.963-1.782l.145-.032a161.9 161.9 0 0 0 16.973-2.034l.189-.036a48.757 48.757 0 0 1 9.859-1.34l.57.007-.057.567c-.342 3.368-2.468 7.186-5.832 10.474a37.233 37.233 0 0 1 -14.79 8.45c-.332.108-.662.2-.988.3-.446.129-.891.25-1.33.357zm-18.409-11.083a32.009 32.009 0 0 0 3.192 3.266 26.688 26.688 0 0 0 15.234 6.77c.4-.1.8-.207 1.2-.324.317-.092.635-.185.956-.288a36.229 36.229 0 0 0 14.383-8.2c3-2.929 4.956-6.267 5.447-9.256a55.555 55.555 0 0 0 -9.056 1.316l-.188.039a163.619 163.619 0 0 1 -17.026 2.044c-1.581.591-3.239 1.186-4.92 1.766-2.393.824-4.661 1.554-6.744 2.167-.836.243-1.669.481-2.479.7z" transform="translate(306.017 -391.528)"/><path d="m-258.63 413.289-1.04-.037c-.391-.015-9.61-.412-13.219-4.882a6.418 6.418 0 0 1 -1.3-5.37 1.339 1.339 0 0 1 1.09-1.111c2.867-.556 10.978 6.352 13.877 10.546zm-14.048-10.4a1.077 1.077 0 0 0 -.218.019c-.142.028-.227.082-.27.286a5.405 5.405 0 0 0 1.086 4.515c2.612 3.236 8.794 4.162 11.333 4.411-3.292-4.188-9.753-9.228-11.93-9.228z" transform="translate(299.316 -391.693)"/><circle cx="1.599" cy="1.599" r="1.599" transform="translate(107.358 34.945)"/><path d="m-284.941 425.521a7.673 7.673 0 0 0 -5.8 2.48 1.869 1.869 0 0 0 -.559 1.158 1.159 1.159 0 0 0 1.158 1.159c.84 0 1.041-.638 1.841-1.279a5.2 5.2 0 0 1 3.357-1.119c3.239 0 4.759 1.8 4.759 4.478v1.88l-5.119 1.08c-3.638.759-7 2.718-7 6.717 0 4.2 3.48 6.437 7.278 6.437a6.934 6.934 0 0 0 7.237-6.877v-9.235c.006-4-2.633-6.879-7.152-6.879zm4.759 16.114c0 2.6-2.078 4.478-4.878 4.478-2.918 0-4.838-1.6-4.838-4.078 0-2.039 1.8-3.64 4.558-4.239l5.158-1.121z" transform="translate(292.298 -382.46)"/><path d="m-263.79 440.6v-13.591a1.152 1.152 0 0 0 -1.2-1.2 1.153 1.153 0 0 0 -1.2 1.2v13.591a5.374 5.374 0 0 1 -5.4 5.4 5.375 5.375 0 0 1 -5.4-5.4v-13.591a1.152 1.152 0 0 0 -1.2-1.2 1.153 1.153 0 0 0 -1.2 1.2v13.591a7.782 7.782 0 0 0 7.8 7.8 7.781 7.781 0 0 0 7.8-7.8z" transform="translate(297.337 -382.347)"/><path d="m-252.37 442.195c0-7.837-11.234-6-11.234-10.956 0-1.959 1.678-3.318 4.077-3.318a5.2 5.2 0 0 1 3.879 1.76 1.746 1.746 0 0 0 .2.279 1.2 1.2 0 0 0 1 .559 1.259 1.259 0 0 0 1.239-1.159 1.354 1.354 0 0 0 -.2-.68 7.6 7.6 0 0 0 -6.118-3.159c-3.158 0-6.477 1.92-6.477 5.718 0 7.357 11.234 5.277 11.234 10.956 0 2.119-1.919 3.918-5.037 3.918a5.428 5.428 0 0 1 -3.919-1.52l-.2-.2a1.084 1.084 0 0 0 -.959-.52 1.238 1.238 0 0 0 -1.24 1.2 1.274 1.274 0 0 0 .241.679c1.24 1.841 4.038 2.759 6.078 2.759 3.957.001 7.436-2.437 7.436-6.316z" transform="translate(302.511 -382.46)"/><path d="m-245 450.162a7.31 7.31 0 0 0 4.239-1.439c.4-.321.8-.639.8-1.161a1.232 1.232 0 0 0 -1.161-1.239c-.919 0-1.679 1.439-3.879 1.439-2.317 0-3.678-1.479-3.678-3.239v-14.554h7.078a1.151 1.151 0 0 0 1.2-1.2 1.152 1.152 0 0 0 -1.2-1.2h-7.078v-5.078a1.151 1.151 0 0 0 -1.2-1.2 1.152 1.152 0 0 0 -1.2 1.2v5.078h-3.638a1.152 1.152 0 0 0 -1.2 1.2 1.151 1.151 0 0 0 1.2 1.2h3.638v14.554c.003 3.2 2.562 5.639 6.079 5.639z" transform="translate(306.495 -384.11)"/><path d="m-236.263 425.521c-4.638 0-7 3.638-7 8.078v13.314a1.152 1.152 0 0 0 1.2 1.2 1.151 1.151 0 0 0 1.2-1.2v-13.313c0-3.6 1.72-5.679 4.6-5.679a4.969 4.969 0 0 1 3.079 1.079 1.547 1.547 0 0 1 .2.16 1.293 1.293 0 0 0 .84.36 1.239 1.239 0 0 0 1.24-1.2 1.178 1.178 0 0 0 -.4-.838 7.452 7.452 0 0 0 -4.959-1.961z" transform="translate(311.432 -382.46)"/><path d="m-219.743 441.635v-9.235c0-4-2.639-6.877-7.157-6.877a7.671 7.671 0 0 0 -5.8 2.48 1.87 1.87 0 0 0 -.56 1.158 1.16 1.16 0 0 0 1.159 1.159c.84 0 1.04-.638 1.841-1.279a5.2 5.2 0 0 1 3.357-1.119c3.239 0 4.759 1.8 4.759 4.478v1.88l-5.119 1.08c-3.638.759-7 2.718-7 6.717 0 4.2 3.48 6.437 7.278 6.437a6.933 6.933 0 0 0 7.242-6.879zm-12.114.4c0-2.039 1.8-3.64 4.558-4.239l5.158-1.121v4.959c0 2.6-2.078 4.478-4.878 4.478-2.919.001-4.839-1.598-4.839-4.077z" transform="translate(314.945 -382.46)"/><path d="m-216.674 448.606c-1.56-.68-2.039-2.878-2.039-4.358v-23.712a1.151 1.151 0 0 0 -1.2-1.2 1.151 1.151 0 0 0 -1.2 1.2v23.711c0 2.4.838 4.917 2.918 6.238a2.892 2.892 0 0 0 .639.36 1.107 1.107 0 0 0 .48.079 1.2 1.2 0 0 0 1.161-1.2 1.223 1.223 0 0 0 -.759-1.118z" transform="translate(320.074 -384.872)"/><path d="m-213.585 425.809a1.152 1.152 0 0 0 -1.2 1.2v19.791a1.151 1.151 0 0 0 1.2 1.2 1.151 1.151 0 0 0 1.2-1.2v-19.791a1.152 1.152 0 0 0 -1.2-1.2z" transform="translate(322.543 -382.347)"/><path d="m-207.951 431.239c0-1.959 1.678-3.318 4.077-3.318a5.2 5.2 0 0 1 3.879 1.76 1.583 1.583 0 0 0 .2.279 1.194 1.194 0 0 0 1 .559 1.259 1.259 0 0 0 1.239-1.159 1.354 1.354 0 0 0 -.2-.68 7.6 7.6 0 0 0 -6.118-3.159c-3.159 0-6.477 1.92-6.477 5.718 0 7.357 11.236 5.277 11.236 10.956 0 2.119-1.92 3.918-5.038 3.918a5.428 5.428 0 0 1 -3.919-1.52l-.2-.2a1.084 1.084 0 0 0 -.959-.52 1.238 1.238 0 0 0 -1.24 1.2 1.274 1.274 0 0 0 .24.679c1.24 1.841 4.039 2.759 6.078 2.759 3.958 0 7.436-2.438 7.436-6.317.001-7.836-11.234-5.994-11.234-10.955z" transform="translate(324.226 -382.46)"/><path d="m-257.6 451.363 1.655-4.98z" transform="translate(305.836 -374.32)"/><path d="m-251.49 455.694-3.424-10.275c-.086-.257-.243-.37-.414-.37s-.313.113-.4.37l-3.424 10.275a.472.472 0 0 0 -.029.142.429.429 0 0 0 .442.414.4.4 0 0 0 .4-.3l1.07-3.211h3.9l1.07 3.211a.4.4 0 0 0 .385.3.434.434 0 0 0 .457-.414.517.517 0 0 0 -.033-.142zm-5.493-3.811 1.654-4.98 1.67 4.98z" transform="translate(305.22 -374.84)"/><path d="m-270.214 447.808a2.067 2.067 0 0 1 2.284-1.955 3.183 3.183 0 0 1 2.269 1c.1.1.157.172.157.172a.425.425 0 0 0 .342.156.426.426 0 0 0 .428-.413.4.4 0 0 0 -.1-.257 4.09 4.09 0 0 0 -3.1-1.513 2.911 2.911 0 0 0 -3.139 2.811c0 3.638 5.778 2.469 5.778 5.594 0 1.226-1.1 2.155-2.782 2.155a2.991 2.991 0 0 1 -2.169-.842 1.283 1.283 0 0 1 -.114-.129.423.423 0 0 0 -.342-.185.442.442 0 0 0 -.443.428.454.454 0 0 0 .086.242 3.807 3.807 0 0 0 2.982 1.341c1.941 0 3.638-1.126 3.638-3.01.004-3.896-5.775-2.812-5.775-5.595z" transform="translate(300.553 -374.861)"/><path d="m-258.894 445.956a.412.412 0 0 0 .428-.428.412.412 0 0 0 -.428-.428h-5.351a.439.439 0 0 0 -.43.428v10.272a.439.439 0 0 0 .43.428h5.351a.412.412 0 0 0 .428-.428.411.411 0 0 0 -.428-.428h-4.924v-4.538h4.5a.412.412 0 0 0 .428-.428.412.412 0 0 0 -.428-.428h-4.5v-4.023z" transform="translate(303.077 -374.82)"/><path d="m-246.515 445.1h-5.35a.439.439 0 0 0 -.428.428v10.272a.412.412 0 0 0 .428.428.412.412 0 0 0 .428-.428v-4.966h4.494a.41.41 0 0 0 .427-.428.411.411 0 0 0 -.427-.428h-4.494v-4.023h4.921a.412.412 0 0 0 .43-.428.412.412 0 0 0 -.429-.427z" transform="translate(307.908 -374.82)"/><path d="m-242.925 445a3.691 3.691 0 0 0 -3.681 3.681v4.052a3.69 3.69 0 0 0 3.681 3.681 3.689 3.689 0 0 0 3.681-3.681v-4.052a3.69 3.69 0 0 0 -3.681-3.681zm2.826 7.734a2.833 2.833 0 0 1 -2.826 2.826 2.832 2.832 0 0 1 -2.825-2.826v-4.052a2.832 2.832 0 0 1 2.825-2.825 2.833 2.833 0 0 1 2.826 2.825z" transform="translate(310.127 -374.861)"/><path d="m-236.191 445a3.691 3.691 0 0 0 -3.681 3.681v4.052a3.69 3.69 0 0 0 3.681 3.681 3.69 3.69 0 0 0 3.683-3.681v-4.052a3.691 3.691 0 0 0 -3.683-3.681zm2.826 7.734a2.833 2.833 0 0 1 -2.826 2.826 2.832 2.832 0 0 1 -2.825-2.826v-4.052a2.832 2.832 0 0 1 2.825-2.825 2.833 2.833 0 0 1 2.826 2.825z" transform="translate(312.754 -374.861)"/><path d="m-229.537 445.1h-2.963a.439.439 0 0 0 -.43.428v10.272a.439.439 0 0 0 .43.428h2.967a3.69 3.69 0 0 0 3.681-3.681v-3.767a3.689 3.689 0 0 0 -3.685-3.68zm2.826 7.449a2.833 2.833 0 0 1 -2.826 2.825h-2.538v-9.417h2.538a2.832 2.832 0 0 1 2.826 2.825z" transform="translate(315.462 -374.82)"/><path d="m-225.63 447.808a2.066 2.066 0 0 1 2.283-1.955 3.181 3.181 0 0 1 2.269 1c.1.1.157.172.157.172a.429.429 0 0 0 .342.156.426.426 0 0 0 .428-.413.39.39 0 0 0 -.1-.257 4.09 4.09 0 0 0 -3.1-1.513 2.911 2.911 0 0 0 -3.139 2.811c0 3.638 5.779 2.469 5.779 5.594 0 1.226-1.1 2.155-2.783 2.155a2.985 2.985 0 0 1 -2.167-.842 1.208 1.208 0 0 1 -.115-.129.423.423 0 0 0 -.342-.185.44.44 0 0 0 -.442.428.452.452 0 0 0 .085.242 3.809 3.809 0 0 0 2.982 1.341c1.942 0 3.638-1.126 3.638-3.01.003-3.896-5.775-2.812-5.775-5.595z" transform="translate(317.95 -374.861)"/></g></svg>